<?xml version="1.0" encoding="utf-8"?>
<!-- Generator: Adobe Illustrator 16.0.0, SVG Export Plug-In . SVG Version: 6.00 Build 0)  -->
<!DOCTYPE svg PUBLIC "-//W3C//DTD SVG 1.1//EN" "http://www.w3.org/Graphics/SVG/1.1/DTD/svg11.dtd">
<svg version="1.1" id="Layer_1" xmlns="http://www.w3.org/2000/svg" xmlns:xlink="http://www.w3.org/1999/xlink" x="0px" y="0px"
	 width="32px" height="32px" viewBox="0 0 32 32" enable-background="new 0 0 32 32" xml:space="preserve">
<path d="M29.452,9.408c-1.213-1.889-2.857-3.089-4.932-3.6c-1.028-1.478-2.388-2.633-4.081-3.466
	c-2.303-1.133-4.641-1.392-7.012-0.777c-2.171,0.571-3.82,1.764-4.948,3.578C6.757,5.664,5.237,6.6,3.922,7.953
	c-1.79,1.841-2.758,3.984-2.906,6.429c-0.128,2.242,0.497,4.178,1.875,5.812c-0.037,1.799,0.384,3.532,1.264,5.201
	c1.198,2.271,2.937,3.854,5.216,4.75c2.092,0.814,4.127,0.819,6.105,0.014c1.7,0.591,3.479,0.728,5.34,0.405
	c2.529-0.438,4.572-1.602,6.129-3.493c1.421-1.737,2.054-3.672,1.9-5.802c1.087-1.434,1.767-3.084,2.035-4.953
	C31.247,13.776,30.771,11.473,29.452,9.408z M14.251,27.424c-1.901-1.169-3.072-2.756-3.517-4.76
	c0.996-0.24,1.898-0.662,2.706-1.266c0.007,0.364,0.043,0.733,0.107,1.109c0.221,1.272,0.751,2.396,1.592,3.374
	c0.432,0.501,0.916,0.935,1.449,1.3c-0.346,0.326-0.736,0.612-1.184,0.848C15.016,27.857,14.632,27.656,14.251,27.424z
	 M11.079,6.635c2.226-0.171,4.106,0.424,5.644,1.784c-0.664,0.78-1.146,1.651-1.445,2.615c-0.22-0.29-0.466-0.568-0.74-0.834
	c-0.926-0.9-2.016-1.499-3.271-1.794c-0.644-0.152-1.289-0.217-1.936-0.199c0.088-0.468,0.235-0.929,0.458-1.382
	C10.205,6.734,10.636,6.67,11.079,6.635z M23.316,7.571c0.217,0.371,0.416,0.756,0.588,1.169c0.852,2.064,0.866,4.037,0.048,5.918
	c-0.951-0.392-1.932-0.581-2.944-0.567c0.21-0.3,0.406-0.615,0.575-0.96c0.57-1.159,0.803-2.381,0.696-3.666
	c-0.055-0.66-0.191-1.293-0.409-1.903C22.339,7.502,22.82,7.501,23.316,7.571z M18.079,24.621c-0.098,0.358-0.225,0.691-0.372,1.006
	c-1.258-0.815-2.018-1.963-2.273-3.445c-0.232-1.343,0.057-2.562,0.854-3.66c0.548,0.473,1.003,1.047,1.361,1.727
	C18.364,21.605,18.508,23.062,18.079,24.621z M14.664,15.034c-0.72-0.061-1.426-0.257-2.115-0.597
	c-1.377-0.677-2.35-1.771-2.919-3.284c-0.131-0.348-0.225-0.692-0.29-1.033c1.497-0.08,2.785,0.402,3.864,1.451
	C14.182,12.521,14.664,13.677,14.664,15.034z M18.027,16.902c0.619-0.375,1.306-0.63,2.062-0.761
	c1.512-0.262,2.941,0.052,4.292,0.941c0.311,0.205,0.589,0.428,0.842,0.665c-1.164,0.944-2.49,1.312-3.979,1.099
	C19.895,18.65,18.825,17.999,18.027,16.902z M20.052,8.164c0.539,1.399,0.479,2.774-0.186,4.124
	c-0.602,1.223-1.552,2.039-2.842,2.459c-0.165-0.705-0.195-1.437-0.086-2.197c0.219-1.518,0.959-2.782,2.222-3.791
	C19.45,8.527,19.748,8.331,20.052,8.164z M8.558,13.364c0.537,0.873,1.219,1.601,2.043,2.183c-0.346,0.119-0.688,0.268-1.028,0.447
	c-1.143,0.602-2.049,1.456-2.718,2.557c-0.344,0.564-0.606,1.158-0.788,1.779c-0.418-0.228-0.811-0.511-1.172-0.861
	c0.043-0.426,0.115-0.854,0.219-1.287C5.638,16.01,6.787,14.405,8.558,13.364z M10.465,17.686c1.205-0.635,2.454-0.737,3.744-0.318
	c-0.28,0.667-0.686,1.277-1.222,1.828c-1.068,1.1-2.41,1.688-4.025,1.762c-0.371,0.018-0.728,0-1.072-0.043
	C8.277,19.465,9.134,18.389,10.465,17.686z M19.884,20.498c0.348,0.105,0.711,0.187,1.088,0.24c1.278,0.185,2.512,0.027,3.701-0.471
	c0.61-0.255,1.171-0.581,1.684-0.977c0.204,0.431,0.355,0.891,0.441,1.388c-0.284,0.317-0.595,0.622-0.933,0.911
	c-1.7,1.447-3.571,2.07-5.614,1.873C20.329,22.441,20.207,21.453,19.884,20.498z M14.057,3.413c1.839-0.445,3.678-0.215,5.518,0.689
	c0.821,0.404,1.543,0.905,2.175,1.495c-1.258,0.143-2.446,0.633-3.568,1.467c-1.836-1.69-4.072-2.491-6.711-2.4
	C12.191,4.074,13.053,3.656,14.057,3.413z M2.968,14.354c0.145-1.886,0.932-3.564,2.361-5.034c0.639-0.658,1.338-1.194,2.095-1.613
	c-0.254,1.242-0.156,2.526,0.292,3.853c-2.176,1.224-3.628,3.105-4.357,5.644C3.021,16.334,2.889,15.385,2.968,14.354z
	 M9.948,28.281c-1.75-0.721-3.102-1.988-4.059-3.801c-0.428-0.811-0.722-1.641-0.886-2.49c1.103,0.626,2.354,0.93,3.754,0.914
	c0.492,2.446,1.831,4.408,4.02,5.885C11.847,28.843,10.903,28.674,9.948,28.281z M25.351,25.946
	c-1.226,1.44-2.849,2.336-4.869,2.686c-0.908,0.157-1.793,0.179-2.655,0.071c0.938-0.854,1.617-1.949,2.036-3.286
	c2.481,0.29,4.763-0.377,6.846-2.003C26.471,24.315,26.02,25.16,25.351,25.946z M28.939,16.038
	c-0.131,0.908-0.381,1.752-0.747,2.537c-0.523-1.154-1.359-2.136-2.501-2.946c1.041-2.269,1.11-4.645,0.208-7.126
	c0.784,0.504,1.448,1.195,1.991,2.075C28.882,12.188,29.231,14.009,28.939,16.038z"/>
</svg>
