<?xml version="1.0" encoding="utf-8"?>
<!-- Generator: Adobe Illustrator 16.0.0, SVG Export Plug-In . SVG Version: 6.00 Build 0)  -->
<!DOCTYPE svg PUBLIC "-//W3C//DTD SVG 1.1//EN" "http://www.w3.org/Graphics/SVG/1.1/DTD/svg11.dtd">
<svg version="1.1" id="Layer_1" xmlns="http://www.w3.org/2000/svg" xmlns:xlink="http://www.w3.org/1999/xlink" x="0px" y="0px"
	 width="32px" height="32px" viewBox="0 0 32 32" enable-background="new 0 0 32 32" xml:space="preserve">
<g>
	<path d="M5.56,11.46c0.005-0.048,0.009-0.096,0.017-0.164c0.03,0.039,0.053,0.064,0.098,0.119c0.146-0.272,0.288-0.531,0.424-0.792
		c0.104-0.202,0.203-0.406,0.305-0.609c0.015-0.03,0.037-0.059,0.05-0.089c0.116-0.25,0.215-0.508,0.353-0.745
		c0.099-0.171,0.251-0.312,0.373-0.471c0.23-0.298,0.458-0.6,0.686-0.901C7.873,7.797,7.86,7.771,7.858,7.755
		C7.62,7.976,7.383,8.197,7.146,8.418C7.136,8.41,7.125,8.402,7.115,8.395c0.27-0.341,0.54-0.684,0.825-1.044
		c0.078,0.158,0.14,0.084,0.223,0.009c0.5-0.453,0.985-0.925,1.518-1.338c0.284-0.22,0.646-0.349,0.983-0.49
		c0.81-0.339,1.628-0.658,2.442-0.994c0.253-0.104,0.494-0.234,0.731-0.384c-0.095,0.017-0.188,0.033-0.282,0.05
		c-0.007-0.017-0.012-0.032-0.019-0.048c0.074-0.03,0.148-0.058,0.222-0.089c0.121-0.05,0.296-0.034,0.286-0.247
		c-0.002-0.027,0.08-0.075,0.128-0.083c0.171-0.027,0.343-0.039,0.514-0.063c0.043-0.006,0.081-0.044,0.124-0.059
		c0.103-0.034,0.208-0.083,0.313-0.087c0.598-0.021,1.196-0.049,1.795-0.038c0.685,0.012,1.352,0.168,2.012,0.351
		c0.268,0.074,0.546,0.11,0.815,0.179c0.211,0.053,0.423,0.112,0.622,0.198c0.614,0.272,1.234,0.539,1.832,0.847
		c0.485,0.25,0.944,0.552,1.406,0.845c0.229,0.146,0.434,0.33,0.653,0.493c0.604,0.447,1.096,1.011,1.615,1.545
		c0.061,0.063,0.106,0.141,0.16,0.213c0.016,0.021,0.027,0.06,0.048,0.065c0.364,0.085,0.377,0.457,0.567,0.685
		c0.024,0.031,0.042,0.071,0.065,0.102c0.013,0.014,0.033,0.021,0.104,0.061c-0.05-0.116-0.072-0.19-0.111-0.253
		c-0.421-0.659-0.842-1.318-1.272-1.971c-0.084-0.128-0.207-0.234-0.324-0.335c-0.088-0.076-0.229-0.106-0.147-0.272
		c0.007-0.014-0.033-0.057-0.058-0.08c-0.23-0.228-0.52-0.374-0.73-0.646c-0.192-0.249-0.536-0.383-0.821-0.558
		c-0.248-0.154-0.514-0.283-0.753-0.448c-0.142-0.098-0.25-0.246-0.376-0.377c0.008-0.004,0.062-0.048,0.079-0.037
		c0.128,0.089,0.247,0.188,0.37,0.284c0.015,0.013,0.027,0.03,0.044,0.038c0.244,0.099,0.492,0.186,0.73,0.296
		c0.17,0.079,0.323,0.195,0.487,0.283c0.212,0.113,0.431,0.211,0.645,0.321c0.059,0.032,0.117,0.078,0.159,0.13
		c0.104,0.127,0.283,0.151,0.429,0.04c0.049,0.041,0.099,0.083,0.148,0.124c-0.018-0.321-0.322-0.409-0.47-0.632
		c0.096,0.057,0.189,0.113,0.322,0.194c-0.034-0.089-0.053-0.133-0.07-0.178c0.012-0.011,0.025-0.022,0.037-0.034
		c0.039,0.052,0.117,0.109,0.11,0.154c-0.03,0.203,0.117,0.26,0.246,0.324c0.176,0.087,0.358,0.156,0.569,0.246
		c-0.008,0.007,0.026-0.021,0.093-0.073c0.013,0.028,0.033,0.053,0.035,0.078c0.021,0.289,0.264,0.414,0.43,0.597
		c0.44,0.484,0.871,0.972,1.191,1.549c0.097,0.177,0.249,0.325,0.345,0.503c0.269,0.494,0.522,0.996,0.779,1.498
		c0.213,0.416,0.426,0.833,0.551,1.289c0.167,0.615,0.372,1.22,0.512,1.841c0.146,0.652,0.229,1.316,0.34,1.976
		c0.002,0.006,0.003,0.013,0.003,0.02c0.04,0.631,0.036,1.269,0.129,1.891c0.092,0.614-0.051,1.198-0.12,1.79
		c-0.051,0.431-0.224,0.846-0.326,1.271c-0.101,0.417-0.178,0.841-0.271,1.263c-0.023,0.107-0.063,0.213-0.097,0.318
		c0.018,0.008,0.035,0.014,0.053,0.021c0.019-0.036,0.033-0.073,0.055-0.107c0.018-0.032,0.039-0.061,0.104-0.073
		c-0.028,0.092-0.051,0.187-0.087,0.274c-0.202,0.483-0.405,0.964-0.616,1.442c-0.023,0.056-0.097,0.089-0.137,0.14
		c-0.05,0.063-0.138,0.175-0.119,0.198c0.186,0.254-0.071,0.417-0.143,0.589c-0.153,0.366-0.371,0.71-0.598,1.039
		c-0.461,0.674-0.951,1.327-1.545,1.896c-0.017,0.019-0.027,0.042-0.061,0.097c0.084-0.02,0.135-0.031,0.239-0.056
		c-0.308,0.279-0.576,0.521-0.844,0.769c-0.048,0.042-0.081,0.1-0.119,0.151c-0.062,0.085-0.097,0.168-0.255,0.14
		c-0.12-0.021-0.312,0.013-0.312,0.235c0,0.036-0.038,0.084-0.071,0.109c-0.169,0.129-0.333,0.263-0.515,0.371
		c-0.141,0.086-0.306,0.13-0.454,0.205c-0.055,0.029-0.124,0.096-0.126,0.145c-0.008,0.209-0.17,0.227-0.306,0.267
		c-0.161,0.049-0.294,0.102-0.377,0.275c-0.038,0.081-0.182,0.125-0.288,0.159c-0.247,0.083-0.503,0.145-0.749,0.231
		c-0.05,0.018-0.071,0.107-0.128,0.12c-0.133,0.06-0.262,0.129-0.397,0.18c-0.13,0.051-0.271,0.073-0.396,0.129
		c-0.429,0.189-0.882,0.287-1.338,0.383c-0.33,0.071-0.658,0.146-1.002,0.179c1.579-0.495,3.16-0.974,4.515-1.966
		c-0.01-0.02-0.019-0.04-0.025-0.06c-0.136,0.062-0.271,0.127-0.438,0.205c0.029-0.069,0.048-0.109,0.064-0.149
		c-0.012-0.013-0.023-0.024-0.037-0.036c-0.118,0.164-0.386,0.133-0.438,0.392c-0.008,0.04-0.102,0.072-0.162,0.093
		c-0.143,0.05-0.298,0.073-0.435,0.136c-0.488,0.223-0.971,0.459-1.459,0.685c-0.062,0.029-0.139,0.027-0.211,0.04
		c-0.007-0.018-0.013-0.033-0.02-0.051c0.316-0.165,0.64-0.319,0.949-0.496c0.223-0.129,0.428-0.284,0.641-0.429
		c0.033-0.023,0.062-0.067,0.098-0.073c0.536-0.098,0.901-0.498,1.33-0.775c0.385-0.25,0.705-0.604,1.052-0.913
		c0.025-0.023,0.036-0.063,0.027-0.127c-0.219,0.161-0.438,0.322-0.657,0.483c-0.013-0.015-0.025-0.027-0.039-0.042
		c1.127-0.97,2.253-1.942,3.038-3.223c-0.022-0.021-0.048-0.041-0.071-0.062c-0.111,0.146-0.223,0.292-0.333,0.438
		c-0.22,0.293-0.421,0.604-0.664,0.878c-0.153,0.175-0.365,0.298-0.551,0.443c-0.148,0.117-0.242,0.283-0.451,0.352
		c-0.146,0.048-0.242,0.249-0.363,0.379c-0.129,0.138-0.278,0.238-0.463,0.265c-0.018-0.021-0.035-0.042-0.054-0.062
		c0.123-0.085,0.245-0.168,0.368-0.252c-0.025-0.029-0.052-0.06-0.076-0.091c-1.119,0.923-2.316,1.72-3.644,2.302
		c-0.011-0.018-0.02-0.032-0.028-0.049c0.251-0.142,0.502-0.28,0.754-0.424c0.268-0.151,0.544-0.291,0.795-0.467
		c0.234-0.165,0.544-0.253,0.648-0.575c-0.92,0.541-1.864,1.027-2.876,1.381c0.356-0.188,0.711-0.375,1.068-0.565
		c-0.004-0.013-0.005-0.025-0.007-0.038c-0.059,0-0.126-0.021-0.175,0.002c-0.26,0.119-0.511,0.263-0.773,0.371
		c-0.401,0.167-0.812,0.311-1.223,0.461c-0.032,0.012-0.078-0.008-0.177-0.018c0.391-0.183,0.723-0.338,1.058-0.493
		c-0.006-0.02-0.013-0.04-0.02-0.059c-0.059,0.006-0.119,0.014-0.221,0.024c0.062-0.045,0.093-0.073,0.127-0.092
		c0.067-0.034,0.151-0.048,0.201-0.097c0.495-0.476,1.152-0.698,1.696-1.096c0.412-0.302,0.833-0.596,1.243-0.9
		c0.077-0.057,0.128-0.146,0.188-0.224c-0.016-0.019-0.029-0.037-0.045-0.055c-0.064,0.034-0.132,0.063-0.191,0.105
		c-0.105,0.073-0.22,0.144-0.306,0.237c-0.283,0.315-0.672,0.463-1.025,0.665c-0.133,0.076-0.286,0.114-0.43,0.172
		c-0.15,0.061-0.312,0.107-0.449,0.19c-0.196,0.119-0.417,0.035-0.615,0.109c-0.08,0.029-0.166,0.047-0.27,0.035
		c0.037-0.031,0.069-0.071,0.11-0.096c0.467-0.281,0.977-0.509,1.39-0.854c0.45-0.374,0.949-0.675,1.403-1.034
		c0.051-0.04,0.088-0.096,0.115-0.161c-1.098,0.621-2.126,1.358-3.305,1.835c0.032-0.029,0.062-0.069,0.1-0.087
		c0.227-0.105,0.374-0.31,0.609-0.43c0.487-0.251,0.918-0.617,1.363-0.951c0.116-0.087,0.3-0.146,0.281-0.384
		c-0.06,0.042-0.101,0.063-0.133,0.096c-0.303,0.296-0.66,0.457-1.081,0.534c-0.172,0.031-0.32,0.203-0.475,0.319
		c-0.166,0.125-0.323,0.259-0.486,0.391c-0.014-0.013-0.027-0.024-0.042-0.036c0.082-0.09,0.164-0.181,0.278-0.304
		c-0.297,0.145-0.556,0.271-0.813,0.396c-0.017-0.021-0.03-0.046-0.046-0.069c0.966-0.495,1.839-1.117,2.633-1.846
		c-0.014-0.02-0.026-0.039-0.04-0.058c-0.184,0.11-0.367,0.225-0.552,0.336c-0.007-0.01-0.014-0.02-0.021-0.029
		c0.176-0.125,0.349-0.249,0.521-0.375c0.067-0.054,0.135-0.109,0.196-0.169c0.449-0.429,0.923-0.835,1.337-1.297
		c0.536-0.597,1.021-1.235,1.42-1.942c0.334-0.592,0.64-1.193,0.855-1.832c0.147-0.441,0.219-0.91,0.302-1.371
		c0.079-0.441,0.161-0.887,0.181-1.333c0.024-0.62,0.002-1.245-0.019-1.866c-0.011-0.334-0.037-0.669-0.096-0.998
		c-0.073-0.414-0.159-0.831-0.289-1.23c-0.247-0.756-0.527-1.5-0.8-2.248c-0.037-0.099-0.117-0.183-0.163-0.28
		c-0.044-0.089-0.061-0.193-0.108-0.281c-0.105-0.196-0.209-0.396-0.337-0.577c-0.214-0.298-0.432-0.594-0.674-0.868
		c-0.235-0.267-0.502-0.504-0.758-0.751c-0.063-0.062-0.131-0.123-0.205-0.17c-0.061-0.039-0.104-0.173-0.213-0.056
		c-0.007,0.008-0.06-0.016-0.086-0.035c-0.148-0.104-0.301-0.207-0.443-0.322C20.693,6.818,19.758,6.556,18.8,6.36
		c-0.474-0.097-0.957-0.197-1.437-0.193c-0.638,0.005-1.276,0.096-1.911,0.18c-0.335,0.044-0.667,0.136-0.992,0.234
		c-0.231,0.069-0.448,0.188-0.671,0.283c-0.144,0.06-0.292,0.111-0.432,0.181c-0.434,0.219-0.861,0.445-1.295,0.659
		c-0.083,0.041-0.183,0.049-0.274,0.074c-0.024,0.006-0.052,0.016-0.071,0.032c-0.195,0.161-0.389,0.325-0.603,0.503
		c-0.036-0.085-0.058-0.142-0.083-0.198c-0.019-0.011-0.037-0.022-0.055-0.033c0.006,0.386-0.307,0.496-0.521,0.692
		c-0.141,0.13-0.283,0.26-0.413,0.402C9.736,9.509,9.437,9.85,9.132,10.189c0,0-0.028-0.046-0.086-0.137
		c-0.083,0.182-0.146,0.334-0.221,0.48c-0.03,0.057-0.096,0.096-0.13,0.152c-0.091,0.154-0.185,0.308-0.255,0.47
		c-0.081,0.188-0.137,0.386-0.205,0.579c-0.07,0.202-0.134,0.406-0.216,0.603c-0.045,0.108-0.143,0.197-0.18,0.307
		c-0.072,0.225-0.108,0.461-0.18,0.685c-0.058,0.179-0.147,0.347-0.245,0.571c-0.031-0.12-0.051-0.199-0.071-0.278
		c0.021,0.006,0.044,0.012,0.065,0.018c0.047-0.109,0.106-0.216,0.137-0.33c0.116-0.424,0.079-0.879,0.327-1.284
		c0.187-0.306,0.224-0.703,0.408-1.01c0.309-0.518,0.654-1.02,1.032-1.491c0.499-0.62,1.09-1.152,1.759-1.591
		c0.143-0.094,0.29-0.182,0.429-0.281c0.098-0.07,0.187-0.159,0.234,0.022c0.511-0.278,1.003-0.545,1.496-0.813
		c0.45-0.244,0.893-0.51,1.356-0.728c0.264-0.123,0.564-0.17,0.848-0.244c0.131-0.034,0.267-0.049,0.4-0.077
		c0.068-0.015,0.136-0.039,0.235-0.069c-0.054-0.042-0.075-0.073-0.094-0.072c-0.23,0.017-0.463,0.021-0.689,0.063
		c-0.237,0.044-0.464,0.131-0.698,0.191c-0.097,0.024-0.197,0.026-0.295,0.04c-0.02,0.003-0.05,0.004-0.058,0.017
		c-0.107,0.174-0.303,0.155-0.462,0.204c-0.099,0.03-0.215,0.005-0.366,0.005C13.3,5.995,13.57,5.893,13.605,5.648
		c-0.339,0.123-0.637,0.292-0.949,0.327c-0.369,0.039-0.539,0.387-0.86,0.467c-0.014-0.022-0.027-0.046-0.042-0.068
		c0.264-0.158,0.527-0.316,0.792-0.472c0.046-0.027,0.123-0.032,0.142-0.069c0.165-0.296,0.483-0.265,0.74-0.362
		c0.256-0.098,0.513-0.198,0.758-0.328c-0.299-0.115-0.506,0.148-0.789,0.14c0.089-0.062,0.178-0.125,0.267-0.187
		c-0.008-0.014-0.016-0.027-0.024-0.041c-0.105,0.035-0.21,0.069-0.314,0.104c-0.011-0.02-0.021-0.041-0.033-0.061
		c0.108-0.063,0.214-0.131,0.324-0.19c0.106-0.058,0.218-0.107,0.328-0.162c-0.01-0.024-0.02-0.049-0.029-0.073
		c-0.137,0.038-0.279,0.064-0.412,0.115c-0.315,0.119-0.634,0.23-0.935,0.381c-0.436,0.217-0.855,0.466-1.283,0.702
		c-0.203,0.112-0.408,0.219-0.609,0.333C10.287,6.419,10,6.741,9.721,7.085C9.458,7.409,9.144,7.688,8.866,7.997
		c-0.232,0.257-0.447,0.53-0.673,0.792c-0.134,0.154-0.278,0.3-0.413,0.455C7.731,9.3,7.698,9.373,7.658,9.437
		c0.016,0.012,0.031,0.022,0.046,0.035c0.097-0.111,0.193-0.22,0.292-0.331c-0.293,0.538-0.737,0.977-0.944,1.561
		c0.025,0.023,0.051,0.047,0.075,0.071c0.024-0.054,0.042-0.112,0.073-0.16C7.407,10.29,7.619,9.97,7.822,9.646
		c0.125-0.201,0.224-0.417,0.354-0.614C8.303,8.841,8.446,8.66,8.598,8.487c0.219-0.251,0.445-0.497,0.68-0.733
		c0.188-0.189,0.396-0.361,0.611-0.556C9.877,7.277,9.869,7.339,9.86,7.401c0.021,0.013,0.043,0.024,0.064,0.038
		c0.085-0.128,0.171-0.256,0.256-0.384c-0.041,0.414-0.322,0.683-0.587,0.962c0.011,0.022,0.02,0.043,0.03,0.065
		c0.056-0.02,0.15-0.028,0.161-0.063c0.075-0.239,0.271-0.286,0.542-0.34c-0.062,0.099-0.086,0.172-0.137,0.215
		C9.987,8.072,9.795,8.252,9.743,8.535c-0.008,0.036-0.058,0.089-0.089,0.09C9.29,8.634,9.23,8.909,9.156,9.177
		C8.951,9.138,8.92,9.176,8.926,9.484C8.883,9.453,8.851,9.431,8.818,9.407c-0.34,0.625-0.681,1.249-1.042,1.912
		c-0.057-0.116-0.093-0.189-0.146-0.3c-0.096,0.234-0.282,0.383-0.25,0.647c0.014,0.107-0.08,0.226-0.132,0.357
		c-0.026-0.019-0.055-0.039-0.101-0.071c-0.034,0.104-0.066,0.204-0.098,0.306c-0.008-0.009-0.015-0.016-0.022-0.025
		c-0.055,0.052-0.144,0.095-0.158,0.156c-0.077,0.331-0.138,0.666-0.2,1.001c-0.045,0.253-0.092,0.508-0.124,0.763
		c-0.017,0.144-0.002,0.292-0.002,0.438c-0.027,0.002-0.055,0.003-0.081,0.004c-0.007-0.099-0.014-0.199-0.02-0.299
		c-0.012-0.001-0.024-0.001-0.038-0.002c-0.038,0.141-0.076,0.281-0.112,0.418c0.081,0.039,0.146,0.07,0.23,0.109
		c0.037-0.09,0.073-0.18,0.108-0.267c0.186,0.007-0.092,0.334,0.208,0.252c-0.014,0.098-0.04,0.192-0.04,0.285
		c0.011,0.585,0.052,1.169,0.11,1.753c0.021,0.216,0.046,0.433,0.088,0.645c0.023,0.117,0.099,0.222,0.129,0.339
		c0.026,0.107,0.022,0.224,0.032,0.337c-0.026,0.003-0.053,0.007-0.08,0.012c-0.143-0.583-0.287-1.163-0.431-1.745
		c-0.02-0.001-0.039-0.001-0.059-0.001c0,0.174-0.022,0.353,0.005,0.523c0.073,0.446,0.133,0.899,0.263,1.329
		c0.248,0.812,0.558,1.598,1.195,2.202c0.052,0.048,0.207,0.123,0.049,0.238c-0.005,0.004,0.04,0.093,0.074,0.128
		c0.115,0.115,0.235,0.224,0.354,0.334c-0.02,0.021-0.038,0.042-0.057,0.062c-0.072-0.065-0.144-0.131-0.208-0.188
		c-0.35,0.065-0.477-0.198-0.625-0.43c-0.015,0.01-0.029,0.019-0.044,0.028c0.05,0.099,0.089,0.205,0.15,0.295
		c0.312,0.46,0.711,0.844,1.12,1.216c0.044,0.04,0.108,0.059,0.157,0.097c0.223,0.171,0.444,0.343,0.666,0.514
		c-0.013,0.02-0.024,0.038-0.038,0.056c-0.232-0.113-0.464-0.23-0.7-0.338c-0.091-0.041-0.192-0.058-0.289-0.085
		c-0.413-0.117-0.653-0.439-0.891-0.761c-0.27-0.361-0.526-0.729-0.802-1.116c-0.244,0.257,0.137,0.341,0.128,0.535
		C7.045,21.057,7,21.042,6.922,21.018c0.204,0.454,0.502,0.803,0.824,1.137c-0.02,0.018-0.038,0.032-0.058,0.049
		c-0.15-0.158-0.321-0.303-0.445-0.479c-0.219-0.311-0.404-0.646-0.615-0.962c-0.057-0.086-0.157-0.144-0.235-0.217
		c-0.026-0.023-0.056-0.053-0.067-0.085c-0.056-0.155-0.106-0.315-0.168-0.498c-0.146,0.305,0.507,1.861,0.855,2.052
		c-0.023-0.108-0.042-0.193-0.06-0.278c0.014-0.01,0.028-0.019,0.042-0.027c0.334,0.682,0.63,1.391,1.274,1.864
		c0.022-0.019,0.062-0.049,0.112-0.087c0.076,0.149,0.146,0.285,0.216,0.421c0.481-0.076,0.816,0.233,1.189,0.444
		c0.198,0.112,0.397,0.224,0.595,0.335c0.015-0.02,0.028-0.04,0.042-0.059c-0.168-0.148-0.338-0.295-0.507-0.44
		c0.011-0.01,0.02-0.019,0.029-0.03c0.244,0.111,0.491,0.216,0.73,0.337c0.164,0.082,0.288,0.199,0.515,0.175
		c0.195-0.023,0.408,0.108,0.673,0.192c-0.059-0.129-0.098-0.212-0.161-0.349c0.232,0.134,0.423,0.242,0.614,0.352
		c0.088,0.05,0.18,0.106,0.195-0.034c0.187,0.044,0.409,0.048,0.58,0.143c0.265,0.148,0.512,0.341,0.739,0.545
		c0.391,0.352,0.677,0.784,0.883,1.268c0.013,0.029,0.034,0.058,0.058,0.098c0.041-0.036,0.071-0.062,0.109-0.098
		c0.058,0.398,0.164,0.777,0.021,1.165c-0.104,0.286-0.219,0.555-0.451,0.762c-0.04,0.035-0.093,0.078-0.101,0.124
		c-0.058,0.319-0.34,0.426-0.536,0.622c-0.238,0.241-0.539,0.256-0.813,0.369c-0.057,0.024-0.147-0.019-0.217-0.044
		c-0.055-0.019-0.418,0.033-0.468,0.068c-0.076,0.055-0.156,0.126-0.242,0.137c-0.498,0.059-1.003,0.159-1.494-0.013
		c-0.298-0.104-0.593-0.242-0.863-0.406c-0.438-0.266-0.877-0.538-1.273-0.858c-0.353-0.286-0.796-0.456-1.072-0.838
		c-0.519-0.717-1.267-1.195-1.878-1.817c-0.523-0.53-1.077-1.032-1.485-1.665c-0.274-0.424-0.588-0.824-0.841-1.261
		c-0.242-0.415-0.431-0.864-0.637-1.301C2.415,21.58,2.303,21.33,2.21,21.072c-0.156-0.434-0.295-0.874-0.458-1.358
		c0.096,0.075,0.144,0.113,0.194,0.152c0.015-0.01,0.028-0.018,0.042-0.026c-0.083-0.166-0.166-0.333-0.248-0.5
		c-0.022-0.048-0.057-0.097-0.065-0.146c-0.18-0.983-0.177-1.977-0.172-2.971c0-0.012,0.011-0.023,0.036-0.074
		c0.03,0.069,0.062,0.115,0.069,0.166c0.086,0.589,0.032,1.189,0.181,1.773c0.069,0.273,0.058,0.567,0.116,0.846
		c0.081,0.392,0.177,0.784,0.298,1.165c0.067,0.211,0.212,0.397,0.3,0.604c0.068,0.158,0.104,0.33,0.155,0.497
		c0.018-0.002,0.035-0.004,0.052-0.006c0.01-0.033,0.033-0.071,0.026-0.099c-0.135-0.492-0.267-0.987-0.411-1.477
		c-0.111-0.377-0.258-0.743-0.35-1.122c-0.072-0.304-0.116-0.619-0.117-0.931c-0.006-0.875,0-1.751,0.036-2.625
		c0.018-0.407,0.107-0.812,0.18-1.214c0.02-0.11,0.109-0.205,0.139-0.314c0.08-0.294,0.144-0.594,0.216-0.891
		c0.023-0.097,0.087-0.169,0.14-0.248c0.134-0.201,0.286-0.422,0.209-0.708c-0.024-0.091,0.026-0.214,0.066-0.312
		c0.238-0.596,0.48-1.19,0.718-1.783c0.043-0.107,0.078-0.217,0.116-0.326c0.025,0.007,0.052,0.013,0.076,0.02
		C3.734,9.283,3.73,9.407,3.689,9.517C3.629,9.675,3.54,9.824,3.464,9.978c-0.06,0.121-0.131,0.239-0.175,0.366
		c-0.016,0.047,0.028,0.117,0.044,0.177c0.017-0.006,0.032-0.012,0.049-0.018c0.219-0.493,0.44-0.986,0.658-1.478
		c0.028,0.009,0.058,0.02,0.084,0.029C4.08,9.234,4.047,9.417,3.986,9.592c-0.067,0.191-0.19,0.367-0.234,0.561
		c-0.036,0.155,0.011,0.33,0.071,0.516c0.127-0.266,0.256-0.532,0.385-0.799c0.017,0.004,0.036,0.009,0.052,0.012
		c-0.026,0.098-0.052,0.195-0.079,0.293c-0.03,0.107-0.06,0.215-0.105,0.378c0.218-0.254,0.396-0.46,0.572-0.666
		c0.018,0.013,0.036,0.026,0.053,0.04c-0.37,1.207-1.014,2.336-1.043,3.639c0.38-0.791,0.516-1.672,0.95-2.442
		c-0.024,0.115-0.051,0.232-0.076,0.347c0.017,0.005,0.033,0.01,0.05,0.015c0.101-0.223,0.201-0.446,0.3-0.668
		c0.024,0.005,0.049,0.012,0.073,0.018c-0.027,0.137-0.046,0.273-0.081,0.409c-0.092,0.348-0.189,0.693-0.282,1.042
		c-0.003,0.013,0.017,0.032,0.023,0.044c0.169-0.408,0.336-0.813,0.505-1.221c0.019,0.005,0.037,0.013,0.056,0.019
		c-0.013,0.064-0.024,0.129-0.038,0.195c0.019,0.006,0.037,0.012,0.055,0.019c0.181-0.354,0.35-0.714,0.547-1.058
		C5.954,9.912,6.188,9.55,6.422,9.19c0.033-0.053,0.122-0.072,0.185-0.107c-0.017,0.06-0.021,0.13-0.053,0.184
		c-0.163,0.273-0.319,0.554-0.506,0.81c-0.254,0.345-0.407,0.732-0.541,1.131c-0.029,0.087-0.11,0.2,0.059,0.247
		c-0.096,0.297-0.191,0.594-0.287,0.891c0.077,0.009,0.104,0.003,0.109-0.01c0.088-0.259,0.175-0.518,0.254-0.78
		C5.647,11.533,5.589,11.491,5.56,11.46z M23.668,6.984c0.015-0.015,0.029-0.029,0.044-0.043c-0.052-0.074-0.091-0.161-0.156-0.218
		c-0.199-0.17-0.421-0.316-0.609-0.496c-0.441-0.416-0.936-0.751-1.484-1.003c-0.113-0.052-0.271-0.127-0.358-0.086
		c-0.124,0.059-0.203,0.028-0.299-0.015c-0.331-0.147-0.649-0.318-0.99-0.437c-0.39-0.137-0.797-0.226-1.193-0.341
		c-0.502-0.146-1.014-0.2-1.535-0.174c-0.192,0.009-0.383,0.029-0.574,0.044c0.025,0.051,0.053,0.073,0.08,0.075
		c0.307,0.022,0.616,0.025,0.921,0.065c0.19,0.025,0.411,0.056,0.555,0.168c0.188,0.145,0.378,0.199,0.597,0.219
		c0.282,0.027,0.583,0.014,0.844,0.106c0.58,0.206,1.211,0.265,1.739,0.624c0.381,0.258,0.789,0.476,1.183,0.714
		c0.245,0.147,0.489,0.295,0.729,0.449C23.331,6.746,23.498,6.867,23.668,6.984z M11.422,5.49c0.009,0.024,0.02,0.05,0.028,0.074
		c0.469-0.243,0.937-0.485,1.405-0.728C12.302,4.895,11.864,5.198,11.422,5.49z M21.737,25.623c0.231-0.057,0.981-0.842,1.015-1.04
		C22.277,24.813,22.146,25.354,21.737,25.623z M6.487,11.151c0.028,0.016,0.056,0.031,0.084,0.046
		c0.207-0.406,0.518-0.753,0.659-1.195c-0.02-0.011-0.04-0.021-0.058-0.033C6.943,10.364,6.716,10.757,6.487,11.151z M22.614,7.65
		c-0.02,0.022-0.042,0.044-0.062,0.067c0.297,0.286,0.594,0.571,0.892,0.857c0.016-0.017,0.031-0.033,0.046-0.05
		C23.223,8.208,22.947,7.9,22.614,7.65z M3.851,11.3c0.012-0.001,0.021-0.004,0.032-0.007c0.069-0.135,0.111-0.297,0.215-0.398
		c0.131-0.129,0.147-0.179-0.065-0.305C3.97,10.835,3.91,11.068,3.851,11.3z M6.977,19.003c-0.028,0.013-0.058,0.024-0.087,0.037
		c0.084,0.201,0.167,0.403,0.251,0.605c0.031-0.014,0.062-0.026,0.093-0.039C7.149,19.405,7.063,19.203,6.977,19.003z M8.095,10.387
		c0.018,0.006,0.035,0.014,0.053,0.021c0.102-0.199,0.205-0.399,0.307-0.598C8.292,9.981,8.098,10.134,8.095,10.387z M23.25,25.142
		c0.021,0.021,0.042,0.042,0.062,0.063c0.156-0.151,0.314-0.303,0.471-0.455c-0.02-0.02-0.036-0.038-0.055-0.057
		C23.569,24.844,23.409,24.992,23.25,25.142z M24.436,23.977c-0.021-0.016-0.039-0.029-0.06-0.045
		c-0.161,0.212-0.323,0.425-0.486,0.636c0.017,0.014,0.031,0.025,0.047,0.038C24.104,24.396,24.269,24.186,24.436,23.977z
		 M4.449,13.035C4.423,13.023,4.397,13.011,4.371,13c-0.048,0.161-0.096,0.323-0.143,0.484c0.025,0.008,0.052,0.016,0.077,0.024
		C4.353,13.35,4.4,13.192,4.449,13.035z M22.751,25.557c0.02,0.022,0.036,0.045,0.054,0.066c0.129-0.115,0.255-0.23,0.384-0.346
		c-0.014-0.015-0.026-0.03-0.039-0.045C23.016,25.34,22.884,25.449,22.751,25.557z M24.407,7.479
		c-0.032,0.032-0.063,0.063-0.097,0.097c0.111,0.089,0.224,0.18,0.335,0.271c0.017-0.017,0.035-0.034,0.054-0.05
		C24.602,7.69,24.505,7.584,24.407,7.479z M23.988,9.166c0.028-0.02,0.058-0.04,0.086-0.058c-0.09-0.118-0.177-0.237-0.266-0.355
		c-0.02,0.014-0.042,0.029-0.062,0.042C23.827,8.919,23.907,9.042,23.988,9.166z"/>
	<path d="M22.806,23.433c-0.035-0.032-0.062-0.058-0.123-0.11c-0.076,0.081-0.15,0.16-0.224,0.239
		c-0.006-0.006-0.011-0.01-0.016-0.016c0.098-0.14,0.185-0.29,0.298-0.417c0.643-0.721,1.106-1.555,1.513-2.421
		c0.165-0.351,0.332-0.707,0.426-1.08c0.327-1.291,0.504-2.604,0.352-3.938c-0.078-0.677-0.193-1.351-0.29-2.025
		c-0.01-0.067-0.008-0.135-0.012-0.202c0.018-0.003,0.033-0.005,0.05-0.008c0.033,0.176,0.058,0.354,0.097,0.529
		c0.043,0.185,0.096,0.368,0.148,0.566c0.042,0.004,0.1,0.011,0.213,0.023c-0.057,0.125-0.101,0.227-0.146,0.327
		c-0.021-0.007-0.044-0.014-0.065-0.021c0.056,0.275,0.111,0.552,0.164,0.829c0.009,0.047,0,0.096,0.006,0.143
		c0.02,0.181,0.053,0.358,0.06,0.54c0.005,0.137-0.025,0.276-0.032,0.415c-0.021,0.351-0.038,0.701-0.055,1.052
		c0,0.02,0.018,0.041,0.015,0.059c-0.068,0.338-0.138,0.678-0.213,1.016c-0.08,0.364-0.143,0.732-0.255,1.086
		c-0.103,0.328-0.252,0.643-0.394,0.956c-0.134,0.295-0.277,0.586-0.432,0.87c-0.094,0.172-0.218,0.326-0.33,0.489
		c-0.207,0.304-0.411,0.608-0.619,0.914C22.9,23.307,22.854,23.366,22.806,23.433z"/>
	<path d="M15.403,2.142c0.345-0.281,0.731-0.432,1.163-0.488c0.188-0.024,0.36-0.14,0.567-0.099
		c0.242,0.047,0.489,0.072,0.786,0.114c-0.07,0.11-0.104,0.163-0.149,0.234c0.088,0.032,0.179,0.064,0.307,0.11
		c-0.242,0-0.447-0.007-0.652,0.001c-0.37,0.018-0.74,0.05-1.111,0.066c-0.065,0.003-0.195,0.04-0.165-0.119
		c0.002-0.015-0.035-0.054-0.038-0.052c-0.03,0.016-0.062,0.035-0.085,0.06C16,2,15.985,2.064,15.958,2.068
		C15.775,2.101,15.589,2.119,15.403,2.142z"/>
	<path d="M6.619,7.067c0.059-0.085,0.118-0.17,0.176-0.255C6.781,6.799,6.766,6.788,6.752,6.775c-0.181,0.2-0.361,0.4-0.541,0.601
		C6.201,7.37,6.19,7.363,6.179,7.357C6.201,7.312,6.213,7.26,6.245,7.225C6.442,7.004,6.642,6.786,6.842,6.57
		C7.059,6.338,7.275,6.108,7.5,5.884c0.147-0.146,0.312-0.276,0.463-0.419c0.092-0.085,0.169-0.188,0.264-0.27
		c0.137-0.12,0.277-0.239,0.43-0.339c0.411-0.272,0.828-0.539,1.25-0.796c0.104-0.064,0.236-0.082,0.374-0.09
		C10.04,4.12,9.794,4.263,9.559,4.421C9.21,4.656,8.853,4.883,8.526,5.15C8.284,5.349,8.086,5.605,7.868,5.836
		c-0.35,0.369-0.699,0.736-1.05,1.103C6.766,6.993,6.705,7.036,6.646,7.083C6.638,7.077,6.628,7.071,6.619,7.067z"/>
	<path d="M15.916,2.56c0.021,0.027,0.042,0.056,0.091,0.123c-0.208-0.05-0.377-0.091-0.604-0.147
		c0.71-0.116,1.369-0.239,2.045-0.165c-0.329,0.333-0.746,0.169-1.119,0.238C16.231,2.279,16.053,2.619,15.916,2.56z"/>
	<path d="M6.142,6.528C6.147,6.465,6.153,6.401,6.16,6.326C6.105,6.311,6.058,6.298,5.957,6.271
		c0.151-0.203,0.286-0.384,0.419-0.565c0.021,0.011,0.041,0.021,0.061,0.033c0.007,0.056,0.014,0.113,0.026,0.223
		c0.143-0.188,0.262-0.345,0.38-0.5c0.014,0.01,0.026,0.02,0.04,0.03C6.63,5.827,6.64,6.344,6.142,6.528z"/>
	<path d="M13.744,3.339c0.786-0.313,1.584-0.549,2.33-0.521C15.364,2.976,14.554,3.158,13.744,3.339z"/>
	<path d="M25.494,14.793c0.037,0.515,0.072,1.028,0.109,1.543c-0.033,0.003-0.066,0.006-0.099,0.009
		c-0.039-0.513-0.079-1.026-0.117-1.539C25.423,14.801,25.459,14.797,25.494,14.793z"/>
	<path d="M14.217,2.338c-0.432,0.128-0.864,0.258-1.296,0.387C13.31,2.446,13.755,2.363,14.217,2.338z"/>
	<path d="M24.258,11.893c0.162,0.434,0.324,0.869,0.485,1.303c-0.024,0.009-0.05,0.019-0.074,0.028
		c-0.158-0.436-0.315-0.872-0.473-1.308C24.217,11.908,24.237,11.9,24.258,11.893z"/>
	<path d="M14.356,2.373c0.021-0.15,0.063-0.217,0.203-0.206c0.107,0.008,0.216-0.029,0.326-0.035c0.04-0.001,0.08,0.03,0.12,0.047
		c-0.021,0.038-0.042,0.076-0.065,0.111c-0.007,0.009-0.024,0.015-0.037,0.017C14.728,2.328,14.552,2.349,14.356,2.373z"/>
	<path d="M16.923,1.403c-0.22,0.033-0.441,0.064-0.661,0.097c-0.004-0.022-0.008-0.045-0.013-0.067
		c0.191-0.175,0.44-0.068,0.655-0.133C16.912,1.334,16.918,1.368,16.923,1.403z"/>
	<path d="M5.93,7.904C5.757,8.161,5.585,8.418,5.413,8.675C5.392,8.661,5.37,8.647,5.351,8.634c0.172-0.258,0.342-0.516,0.515-0.775
		C5.886,7.874,5.907,7.89,5.93,7.904z"/>
	<path d="M22.547,23.704c-0.222,0.194-0.444,0.389-0.665,0.583c-0.02-0.022-0.038-0.044-0.058-0.066
		c0.224-0.194,0.448-0.389,0.672-0.582C22.512,23.66,22.529,23.683,22.547,23.704z"/>
	<path d="M20.591,25.704c-0.236,0.153-0.474,0.305-0.71,0.456c-0.015-0.021-0.029-0.044-0.045-0.066
		c0.234-0.157,0.468-0.314,0.702-0.472C20.555,25.649,20.573,25.677,20.591,25.704z"/>
	<path d="M6.936,7.638c0.196-0.23,0.392-0.461,0.588-0.692C7.544,6.963,7.565,6.98,7.585,6.998C7.39,7.23,7.194,7.461,6.999,7.693
		C6.978,7.675,6.957,7.657,6.936,7.638z"/>
	<path d="M21.979,24.44c-0.19,0.128-0.381,0.255-0.577,0.387c0.055-0.192,0.153-0.273,0.537-0.435
		C21.954,24.408,21.965,24.425,21.979,24.44z"/>
	<path d="M12.625,6.624C12.462,6.726,12.3,6.828,12.137,6.93c-0.014-0.009-0.026-0.017-0.04-0.025
		c0.024-0.082,0.05-0.164,0.083-0.276c0.056,0.062,0.081,0.09,0.105,0.117c0.096-0.066,0.19-0.133,0.286-0.2
		C12.589,6.572,12.607,6.598,12.625,6.624z"/>
	<path d="M15.304,3.227c0.252-0.031,0.503-0.062,0.756-0.093c0.003,0.018,0.004,0.037,0.007,0.054
		c-0.253,0.03-0.505,0.061-0.758,0.091C15.308,3.262,15.306,3.244,15.304,3.227z"/>
	<path d="M18.36,28.581c-0.18,0.067-0.358,0.137-0.536,0.204c-0.011-0.026-0.021-0.054-0.03-0.08
		c0.177-0.064,0.355-0.13,0.532-0.193C18.337,28.535,18.348,28.558,18.36,28.581z"/>
	<path d="M8.877,5.714c-0.145,0.19-0.289,0.381-0.434,0.574C8.418,6.267,8.395,6.248,8.37,6.227c0.136-0.198,0.355-0.325,0.51-0.508
		L8.877,5.714z"/>
	<path d="M23.923,11.105c0.088,0.191,0.177,0.381,0.263,0.572c-0.018,0.008-0.036,0.018-0.054,0.026
		c-0.093-0.186-0.184-0.373-0.275-0.56C23.878,11.13,23.901,11.117,23.923,11.105z"/>
	<path d="M24.34,4.621c0.144,0.097,0.289,0.192,0.433,0.288c-0.015,0.022-0.029,0.046-0.044,0.07
		c-0.146-0.096-0.292-0.19-0.438-0.286C24.307,4.668,24.323,4.645,24.34,4.621z"/>
	<path d="M6.712,9.038c0-0.256,0.054-0.327,0.286-0.407C6.896,8.775,6.803,8.906,6.712,9.038z"/>
	<path d="M8.88,5.72C9,5.634,9.12,5.55,9.239,5.465c-0.129,0.305-0.189,0.337-0.362,0.25C8.877,5.714,8.88,5.72,8.88,5.72z"/>
	<path d="M5.631,10.276c-0.082,0.157-0.163,0.315-0.245,0.472c-0.024-0.011-0.046-0.022-0.069-0.033
		c0.081-0.158,0.163-0.316,0.245-0.474C5.585,10.254,5.607,10.265,5.631,10.276z"/>
	<path d="M16.861,1.079C17.014,1.053,17.167,1.027,17.318,1c0.004,0.022,0.007,0.046,0.011,0.068
		c-0.152,0.023-0.306,0.046-0.457,0.069C16.868,1.118,16.865,1.099,16.861,1.079z"/>
	<path d="M8.011,20.04c0.081,0.127,0.163,0.254,0.245,0.382c-0.021,0.014-0.043,0.026-0.064,0.04
		c-0.083-0.129-0.165-0.257-0.247-0.386C7.966,20.063,7.988,20.053,8.011,20.04z"/>
	<path d="M4.845,10.445c0.086-0.155,0.172-0.31,0.259-0.463c0.014,0.008,0.028,0.015,0.042,0.021
		c-0.078,0.158-0.156,0.315-0.234,0.473C4.889,10.467,4.867,10.455,4.845,10.445z"/>
	<path d="M20.43,25.532c0.142-0.103,0.284-0.207,0.425-0.31c0.017,0.021,0.03,0.044,0.046,0.063
		c-0.145,0.099-0.291,0.194-0.436,0.293C20.452,25.563,20.441,25.548,20.43,25.532z"/>
</g>
</svg>
