<?xml version="1.0" encoding="utf-8"?>
<!-- Generator: Adobe Illustrator 16.0.0, SVG Export Plug-In . SVG Version: 6.00 Build 0)  -->
<!DOCTYPE svg PUBLIC "-//W3C//DTD SVG 1.1//EN" "http://www.w3.org/Graphics/SVG/1.1/DTD/svg11.dtd">
<svg version="1.1" id="Layer_1" xmlns="http://www.w3.org/2000/svg" xmlns:xlink="http://www.w3.org/1999/xlink" x="0px" y="0px"
	 width="32px" height="32px" viewBox="0 0 32 32" enable-background="new 0 0 32 32" xml:space="preserve">
<path fill="#231F20" d="M30.268,10.943c-1.443-2.529-4.254-3.331-6.514-2.043c-2.105,1.201-2.773,3.887-1.408,6.28
	c0.76,1.333,2.119,2.145,3.266,2.182c-1.92,1.003-3.615,1.166-4.865,0.793c-0.043-0.319-0.201-0.641-0.49-0.905
	c-0.363-0.329-0.84-0.463-1.344-0.471c-0.002,0-0.004,0-0.006,0c-0.002-0.006-0.006-0.01-0.008-0.015
	c-0.311-0.542-0.436-1.031-0.408-1.432c0.189,0.02,0.408-0.002,0.641-0.135c0.383-0.218,0.621-0.597,0.641-1.022
	c1.348-1.505,2.035-3.995,1.309-7.498c-0.445-2.155-1.336-3.719-2.621-4.543c-1.027-0.695-2.294-0.887-3.688-0.598
	c-2.852,0.591-4.482,3.017-3.955,5.565c0.492,2.373,2.838,3.839,5.539,3.279c1.5-0.311,2.694-1.353,3.083-2.432
	c0.361,2.136-0.008,3.799-0.75,4.871c-0.316-0.057-0.67-0.006-1.012,0.188c-0.424,0.242-0.701,0.655-0.863,1.133
	c0,0.002,0,0.003-0.002,0.004c-0.006,0.002-0.01,0.004-0.016,0.005c-0.611,0.126-1.116,0.095-1.489-0.056
	c0.078-0.175,0.125-0.389,0.07-0.649c-0.09-0.432-0.375-0.775-0.774-0.925c-1.015-1.747-3.171-3.172-6.727-3.563
	c-2.188-0.241-3.95,0.123-5.13,1.089c-0.979,0.764-1.553,1.908-1.708,3.322c-0.32,2.896,1.484,5.196,4.069,5.482
	c2.409,0.266,4.528-1.514,4.831-4.254c0.168-1.524-0.454-2.979-1.359-3.684c2.143,0.316,3.609,1.182,4.4,2.219
	c-0.15,0.283-0.214,0.635-0.134,1.02c0.099,0.479,0.407,0.869,0.81,1.171c0.002,0.002,0.004,0.002,0.005,0.004
	c0,0.006-0.001,0.012-0.001,0.017c-0.068,0.619-0.255,1.09-0.514,1.398c-0.141-0.128-0.331-0.239-0.596-0.268
	c-0.438-0.05-0.854,0.117-1.119,0.449c-1.975,0.427-3.995,2.036-5.467,5.297c-0.905,2.007-1.103,3.795-0.549,5.216
	c0.424,1.168,1.335,2.066,2.632,2.651c2.654,1.198,5.4,0.194,6.471-2.177c0.997-2.208-0.04-4.773-2.553-5.907
	c-1.397-0.633-2.975-0.489-3.924,0.154c0.964-1.94,2.24-3.068,3.47-3.501c0.224,0.232,0.54,0.401,0.929,0.443
	c0.486,0.054,0.953-0.118,1.365-0.408c0.002-0.001,0.002-0.002,0.004-0.003c0.005,0.002,0.01,0.004,0.016,0.006
	c0.568,0.257,0.958,0.579,1.172,0.919c-0.167,0.097-0.33,0.242-0.439,0.485c-0.182,0.402-0.152,0.848,0.083,1.203
	c-0.206,2.01,0.701,4.43,3.347,6.837c1.627,1.481,3.268,2.223,4.791,2.135c1.24-0.044,2.377-0.632,3.336-1.685
	c1.959-2.154,1.854-5.076-0.072-6.826c-1.791-1.631-4.553-1.438-6.408,0.602c-1.031,1.134-1.383,2.678-1.062,3.779
	c-1.549-1.516-2.228-3.078-2.258-4.382c0.29-0.14,0.547-0.388,0.709-0.746c0.199-0.446,0.18-0.942,0.033-1.425
	c-0.002-0.001-0.002-0.003-0.004-0.004c0.006-0.004,0.008-0.009,0.012-0.013c0.42-0.461,0.848-0.732,1.236-0.829
	c0.039,0.187,0.127,0.387,0.324,0.565c0.326,0.298,0.76,0.407,1.172,0.295c1.846,0.815,4.428,0.701,7.535-1.071
	c1.912-1.091,3.125-2.422,3.512-3.896C31.182,13.441,30.973,12.18,30.268,10.943z M16.179,8.711
	c-1.406,0.291-2.514-0.451-2.761-1.646c-0.279-1.353,0.473-2.59,1.913-2.889c0.721-0.148,1.374-0.009,1.877,0.308
	c0.523,0.313,0.891,0.843,1.014,1.44C18.479,7.153,17.639,8.409,16.179,8.711z M8.294,14.246c-0.156,1.427-1.205,2.251-2.417,2.116
	c-1.374-0.151-2.318-1.248-2.157-2.712c0.081-0.73,0.415-1.308,0.873-1.69c0.46-0.401,1.076-0.586,1.683-0.519
	C7.524,11.578,8.458,12.766,8.294,14.246z M11.123,23.455c1.309,0.591,1.769,1.842,1.267,2.954
	c-0.569,1.259-1.905,1.817-3.246,1.213c-0.671-0.304-1.116-0.799-1.339-1.353c-0.239-0.562-0.224-1.204,0.026-1.761
	C8.347,23.364,9.765,22.842,11.123,23.455z M20.754,23.611c0.967-1.062,2.299-1.112,3.201-0.291c1.021,0.931,1.141,2.373,0.15,3.461
	c-0.494,0.545-1.105,0.814-1.699,0.856c-0.607,0.053-1.215-0.159-1.666-0.569C19.811,26.223,19.752,24.714,20.754,23.611z
	 M16.087,18.204c-0.359-0.332-0.787-0.625-1.265-0.86c0.204-0.442,0.352-0.94,0.427-1.467c0.484,0.058,1.005,0.044,1.528-0.048
	c0.094,0.479,0.27,0.968,0.518,1.438C16.869,17.505,16.457,17.823,16.087,18.204z M28.219,14.172
	c-0.137,0.596-0.527,1.106-1.057,1.409c-1.09,0.622-2.545,0.211-3.281-1.082c-0.713-1.247-0.35-2.528,0.711-3.134
	c1.201-0.685,2.609-0.352,3.34,0.926C28.295,12.931,28.363,13.594,28.219,14.172z"/>
</svg>
