<?xml version="1.0" encoding="utf-8"?>
<!-- Generator: Adobe Illustrator 16.0.0, SVG Export Plug-In . SVG Version: 6.00 Build 0)  -->
<!DOCTYPE svg PUBLIC "-//W3C//DTD SVG 1.1//EN" "http://www.w3.org/Graphics/SVG/1.1/DTD/svg11.dtd">
<svg version="1.1" id="Layer_1" xmlns="http://www.w3.org/2000/svg" xmlns:xlink="http://www.w3.org/1999/xlink" x="0px" y="0px"
	 width="32px" height="32px" viewBox="0 0 32 32" enable-background="new 0 0 32 32" xml:space="preserve">
<path fill="#010101" d="M16,1C7.715,1,1,7.716,1,16c0,8.283,6.715,15,15,15c8.284,0,15-6.717,15-15C31,7.716,24.284,1,16,1z
	 M24.908,24.908c-1.157,1.157-2.506,2.066-4.005,2.701c-0.381,0.16-0.768,0.302-1.16,0.424v-2.248c0-1.181-0.405-2.051-1.216-2.606
	c0.509-0.051,0.974-0.117,1.398-0.206c0.425-0.088,0.875-0.214,1.349-0.38s0.898-0.365,1.273-0.595
	c0.377-0.228,0.738-0.526,1.084-0.893c0.348-0.367,0.638-0.782,0.872-1.245s0.421-1.02,0.557-1.67
	c0.137-0.648,0.205-1.364,0.205-2.146c0-1.514-0.493-2.803-1.479-3.867c0.449-1.172,0.399-2.446-0.146-3.823l-0.367-0.044
	c-0.255-0.03-0.711,0.077-1.37,0.322c-0.659,0.245-1.399,0.645-2.22,1.201c-1.16-0.322-2.367-0.483-3.617-0.483
	c-1.26,0-2.461,0.161-3.604,0.483c-0.518-0.352-1.008-0.642-1.472-0.872c-0.464-0.23-0.835-0.386-1.114-0.469
	C9.599,8.41,9.34,8.358,9.101,8.339S8.708,8.314,8.639,8.324c-0.069,0.01-0.117,0.02-0.146,0.03
	c-0.546,1.387-0.597,2.661-0.146,3.823c-0.986,1.064-1.479,2.354-1.479,3.867c0,0.781,0.069,1.496,0.206,2.146
	c0.137,0.65,0.322,1.207,0.557,1.67c0.234,0.464,0.524,0.879,0.871,1.246c0.347,0.365,0.708,0.664,1.084,0.893
	c0.376,0.229,0.8,0.427,1.274,0.594c0.473,0.167,0.922,0.292,1.348,0.381c0.426,0.088,0.89,0.155,1.398,0.205
	c-0.801,0.548-1.201,1.415-1.201,2.607v2.292c-0.443-0.132-0.878-0.288-1.307-0.469c-1.5-0.635-2.847-1.543-4.005-2.701
	c-1.157-1.158-2.066-2.505-2.701-4.006c-0.656-1.551-0.989-3.2-0.989-4.901c0-1.702,0.332-3.352,0.989-4.902
	c0.634-1.5,1.543-2.847,2.701-4.005s2.506-2.066,4.005-2.701c1.551-0.657,3.201-0.989,4.902-0.989c1.702,0,3.352,0.333,4.902,0.989
	c1.5,0.634,2.848,1.543,4.005,2.701s2.066,2.505,2.701,4.005c0.656,1.552,0.988,3.201,0.988,4.902c0,1.701-0.331,3.351-0.988,4.901
	C26.975,22.403,26.065,23.751,24.908,24.908z"/>
</svg>
