<?xml version="1.0" encoding="utf-8"?>
<!-- Generator: Adobe Illustrator 16.0.0, SVG Export Plug-In . SVG Version: 6.00 Build 0)  -->
<!DOCTYPE svg PUBLIC "-//W3C//DTD SVG 1.1//EN" "http://www.w3.org/Graphics/SVG/1.1/DTD/svg11.dtd">
<svg version="1.1" id="Layer_1" xmlns="http://www.w3.org/2000/svg" xmlns:xlink="http://www.w3.org/1999/xlink" x="0px" y="0px"
	 width="32px" height="32px" viewBox="0 0 32 32" enable-background="new 0 0 32 32" xml:space="preserve">
<path id="path5" d="M26.043,10.848c-2.738,0-4.958,2.224-4.958,4.965c0,0.017,0.011,0.2,0.013,0.235
	c0.006,0.336-0.078,1.044-0.824,1.496c-0.749,0.449-1.429,0.22-1.76,0.051c-0.06-0.036-0.212-0.122-0.213-0.122
	c-0.321-0.216-0.807-0.676-0.807-1.5c0-0.799,0.473-1.232,0.773-1.428c0.073-0.038,0.245-0.137,0.245-0.137
	c1.461-0.863,2.445-2.452,2.445-4.276c0-2.742-2.221-4.966-4.959-4.966s-4.958,2.224-4.958,4.966c0,1.823,0.984,3.413,2.446,4.276
	c0,0,0.17,0.098,0.243,0.137c0.303,0.196,0.774,0.63,0.774,1.428c0,0.824-0.486,1.284-0.806,1.5l-0.273,0.151l0,0
	c-0.349,0.165-0.994,0.343-1.698-0.08c-0.745-0.45-0.83-1.159-0.823-1.496c0-0.035,0.011-0.218,0.011-0.235
	c0-2.741-2.219-4.965-4.958-4.965C3.22,10.848,1,13.072,1,15.813c0,2.744,2.22,4.966,4.958,4.966c0.856,0,1.613-0.188,2.316-0.571
	c0,0,0.192-0.114,0.264-0.159c0.317-0.161,0.946-0.364,1.648,0.059c0.733,0.442,0.859,1.135,0.869,1.513
	c-0.004,0.082-0.012,0.265-0.012,0.265c0.01,2.734,2.225,4.948,4.958,4.948c2.733,0,4.946-2.214,4.958-4.948h0.003
	c0,0-0.011-0.168-0.015-0.243c0.004-0.371,0.119-1.082,0.869-1.535c0.702-0.422,1.332-0.219,1.648-0.058
	c0.072,0.044,0.215,0.131,0.215,0.131c0.703,0.383,1.508,0.602,2.364,0.602c2.738,0,4.958-2.225,4.958-4.968
	C31,13.072,28.781,10.848,26.043,10.848L26.043,10.848z M16,8.213c1.059,0,1.915,0.859,1.915,1.919c0,1.059-0.856,1.919-1.915,1.919
	c-1.058,0-1.916-0.86-1.916-1.919C14.084,9.072,14.942,8.213,16,8.213z M5.958,17.734c-1.057,0-1.915-0.861-1.915-1.92
	s0.858-1.919,1.915-1.919c1.058,0,1.916,0.86,1.916,1.919S7.017,17.734,5.958,17.734z M16,23.788c-1.058,0-1.916-0.859-1.916-1.92
	c0-1.06,0.858-1.919,1.916-1.919c1.059,0,1.915,0.859,1.915,1.919C17.915,22.929,17.059,23.788,16,23.788z M26.042,17.734
	c-1.059,0-1.916-0.861-1.916-1.92s0.857-1.919,1.916-1.919s1.916,0.86,1.916,1.919S27.101,17.734,26.042,17.734z"/>
</svg>
