<?xml version="1.0" encoding="utf-8"?>
<!-- Generator: Adobe Illustrator 16.0.0, SVG Export Plug-In . SVG Version: 6.00 Build 0)  -->
<!DOCTYPE svg PUBLIC "-//W3C//DTD SVG 1.1//EN" "http://www.w3.org/Graphics/SVG/1.1/DTD/svg11.dtd">
<svg version="1.1" id="Layer_1" xmlns="http://www.w3.org/2000/svg" xmlns:xlink="http://www.w3.org/1999/xlink" x="0px" y="0px"
	 width="32px" height="32px" viewBox="0 0 32 32" enable-background="new 0 0 32 32" xml:space="preserve">
<g>
	<path d="M13.592,30.954c1.951,0.174,3.814-0.522,5.181-1.924c0.637-0.651,1.131-1.434,1.432-2.293
		c0.146-0.423,0.287-0.467,0.662-0.224c0.461,0.297,0.955,0.537,1.473,0.714c3.875,1.327,7.961-1.649,8.277-5.643
		c0.158-2.019-0.746-4.108-2.309-5.392c-0.162-0.132-0.713-0.431-0.371-0.694c0.354-0.271,0.682-0.568,0.975-0.902
		c0.633-0.718,1.113-1.567,1.354-2.497c0.969-3.753-1.826-7.714-5.711-7.984c-0.922-0.064-1.867,0.06-2.736,0.374
		c-0.422,0.153-0.828,0.354-1.207,0.596c-0.461,0.294-0.637,0.466-0.871-0.121c-0.666-1.659-1.957-2.998-3.653-3.597
		c-3.744-1.322-7.855,1.056-8.525,4.971C7.386,7.364,7.458,8.423,7.792,9.41c0.147,0.437-0.58,0.358-0.787,0.381
		c-0.544,0.058-1.083,0.181-1.597,0.367c-1.743,0.635-3.065,2.075-3.686,3.812c-1.353,3.783,1.28,7.996,5.254,8.488
		c0.278,0.034,0.698-0.056,0.957,0.072c0.347,0.172-0.055,1.09-0.091,1.376c-0.146,1.151-0.003,2.327,0.492,3.382
		C9.303,29.354,11.33,30.752,13.592,30.954C15.355,31.111,11.831,30.796,13.592,30.954z M18.398,24.944
		c-0.246,2.775-3.053,4.576-5.683,3.652c-2.77-0.972-3.509-4.28-1.876-6.574c0.404-0.567,0.957-0.888,1.448-1.369
		c0.325-0.319,0.45-0.245,0.775-0.041c0.614,0.385,1.229,0.771,1.844,1.155c0.463,0.291-0.243,1.046-0.431,1.343
		c-0.346,0.553-0.763,1.217-0.763,1.217c-0.151,0.243-0.078,0.566,0.165,0.718l0.928,0.582c0.243,0.152,0.565,0.078,0.718-0.164
		c0,0,0.857-1.367,1.423-2.271c0.127-0.201,0.4-0.881,0.703-0.883c0.418,0.009,0.377,0.685,0.492,0.938
		C18.393,23.803,18.453,24.328,18.398,24.944C18.293,26.134,18.438,24.507,18.398,24.944z M28.182,19.563
		c0.949,2.357-0.467,5.062-2.902,5.712c-1.248,0.333-2.574-0.024-3.584-0.805c-0.484-0.374-0.889-0.844-1.211-1.364
		c-0.307-0.497-0.416-1.101-0.699-1.62c-0.189-0.346,0.807-0.948,1-1.109c0.191-0.16,0.961-0.591,0.961-0.591
		c0.25-0.14,0.605-0.074,0.789,0.146c0,0,0.385,0.46,0.648,0.774c0.326,0.392,0.648,0.775,0.648,0.775
		c0.184,0.22,0.516,0.252,0.736,0.07c0,0,1.254-1.021,1.221-1.062c-0.598-0.714-1.195-1.429-1.793-2.143
		c-0.252-0.302-0.504-0.604-0.758-0.905c-0.375-0.449,0.217-0.469,0.217-0.469c0.285-0.009,0.746,0.04,1.025,0.11
		C24.48,17.084,27.492,17.847,28.182,19.563C28.621,20.654,27.744,18.474,28.182,19.563z M19.848,9.626
		c0.041-0.186,0.186-0.354,0.227-0.576c0.064-0.346,0.23-0.627,0.432-0.916c0.422-0.605,0.986-1.123,1.648-1.454
		c1.305-0.653,2.941-0.587,4.164,0.215c2.619,1.715,2.611,5.514-0.068,7.161c-0.463,0.284-1.221,0.695-1.781,0.666
		c-0.338-0.013-1.607,0.311-1.756-0.061c-0.281-0.697-0.561-1.395-0.842-2.092c-0.086-0.214-0.27-0.524,0.055-0.654
		c0.289-0.116,0.578-0.232,0.867-0.349c0.646-0.261,1.459-0.587,1.459-0.587c0.266-0.107,0.396-0.412,0.289-0.678
		c0,0-0.268-0.665-0.498-1.239C23.982,8.916,24,8.776,23.846,8.84c-0.248,0.099-0.494,0.198-0.74,0.297
		c-0.75,0.302-1.498,0.603-2.248,0.904C20.287,10.271,19.631,10.636,19.848,9.626C19.863,9.558,19.818,9.764,19.848,9.626z
		 M18.25,12.021c0.285-0.02,0.752-0.065,1.037-0.102c0,0,0.018-0.002,0.178,0.394c0.18,0.448,0.361,0.897,0.541,1.346
		c0.375,0.931,0.75,1.862,1.123,2.793c0.1,0.248,0.385,0.528,0.115,0.755c-0.287,0.24-0.574,0.48-0.863,0.721
		c-0.834,0.699-1.67,1.397-2.506,2.096c-0.168,0.142-0.418,0.468-0.596,0.559c-0.225,0.115-0.6-0.225-0.768-0.33
		c-0.939-0.589-1.878-1.178-2.817-1.767c-0.257-0.16-0.512-0.32-0.768-0.481c-0.363-0.228-0.492-0.277-0.39-0.687
		c0.257-1.021,0.514-2.044,0.77-3.066c0.116-0.462,0.259-0.925,0.35-1.392c0.068-0.273,0.006-0.525,0.356-0.549
		c0.241-0.017,0.482-0.033,0.725-0.05C16.082,12.169,18.25,12.021,18.25,12.021z M9.747,6.328c0.607-2.422,3.269-3.786,5.61-2.95
		c1.048,0.373,1.842,1.188,2.299,2.191c0.268,0.591,0.402,1.235,0.416,1.884c0.012,0.647-0.191,1.153-0.32,1.776
		c-0.076,0.37-0.051,0.687-0.475,0.716c-0.309,0.021-0.617,0.042-0.925,0.063c-0.338,0.022-1.404,0.296-1.696,0.039
		c-0.278-0.242-0.162-1.248-0.184-1.563c-0.038-0.557-0.078-1.15-0.078-1.15c-0.02-0.286-0.27-0.504-0.555-0.484l-1.094,0.074
		c-0.286,0.02-0.503,0.27-0.483,0.556c0,0,0.141,2.062,0.229,3.354c0.014,0.193,0.052,0.495-0.245,0.495
		c-0.177,0-0.575-0.198-0.621-0.387c-0.041-0.159-0.47-0.252-0.592-0.365C9.874,9.499,9.361,7.864,9.747,6.328
		C10.033,5.188,9.46,7.467,9.747,6.328z M7.715,20.351c-2.701,0-4.71-2.635-4.097-5.242c0.277-1.181,1.062-2.247,2.165-2.774
		c1.109-0.53,3.085-0.721,4.124,0.096c0.253,0.198,0.973,0.752,0.973,0.752c0.227,0.175,0.358,0.532,0.293,0.795
		c0,0,0,0-0.044,0.174c-0.102,0.404-0.203,0.808-0.305,1.211c-0.042,0.169-0.042,0.169-0.042,0.169
		c-0.066,0.266-0.353,0.446-0.636,0.402L7.87,15.622c-0.271-0.091-0.551,0.062-0.621,0.34c0,0-0.218,0.868-0.39,1.555
		c-0.007,0.026,1.78,0.46,1.915,0.494c0.684,0.172,1.367,0.344,2.051,0.515c0.716,0.18-0.552,0.936-0.699,1.075
		C9.53,20.165,8.511,20.351,7.715,20.351z"/>
</g>
</svg>
