<?xml version="1.0" encoding="utf-8"?>
<!-- Generator: Adobe Illustrator 16.0.0, SVG Export Plug-In . SVG Version: 6.00 Build 0)  -->
<!DOCTYPE svg PUBLIC "-//W3C//DTD SVG 1.1//EN" "http://www.w3.org/Graphics/SVG/1.1/DTD/svg11.dtd">
<svg version="1.1" id="Layer_1" xmlns="http://www.w3.org/2000/svg" xmlns:xlink="http://www.w3.org/1999/xlink" x="0px" y="0px"
	 width="32px" height="32px" viewBox="0 0 32 32" enable-background="new 0 0 32 32" xml:space="preserve">
<path fill-rule="evenodd" clip-rule="evenodd" d="M21.918,24.693c-0.16,0.486-0.293,0.957-0.469,1.41
	c-0.268,0.698-0.555,1.391-0.855,2.075c-0.543,1.234-1.551,1.942-2.777,2.385c-1.772,0.639-3.386,0.251-4.864-0.81
	c-0.546-0.391-1.02-0.884-1.516-1.342c-0.094-0.087-0.162-0.117-0.289-0.093c-0.849,0.164-1.621,0.038-2.252-0.608
	c-0.546-0.561-0.688-1.236-0.584-1.986c0.081-0.579,0.226-1.137,0.506-1.654c0.025-0.048,0.042-0.1,0.079-0.187
	c-0.381,0-0.731,0.018-1.081-0.004c-0.948-0.057-1.9-0.09-2.842-0.208c-1.269-0.159-2.193-0.913-2.95-1.895
	c-1.036-1.345-1.232-2.85-0.829-4.465c0.191-0.771,0.465-1.508,0.884-2.185c0.081-0.131,0.067-0.23-0.001-0.354
	c-0.313-0.567-0.482-1.167-0.302-1.811c0.263-0.937,0.888-1.483,1.845-1.661c0.647-0.12,1.293-0.139,1.979-0.011
	c-0.039-0.136-0.07-0.239-0.099-0.344c-0.283-1.04-0.579-2.076-0.845-3.12C4.359,6.654,4.616,5.561,5.208,4.53
	C6.108,2.969,7.457,2.118,9.25,1.95c0.874-0.082,1.736-0.052,2.596,0.136c0.092,0.021,0.237-0.032,0.306-0.102
	c0.544-0.552,1.159-0.921,1.97-0.849c0.689,0.062,1.252,0.353,1.641,0.935c0.388,0.583,0.661,1.215,0.765,1.913
	c0.012,0.079,0.035,0.156,0.059,0.263c0.117-0.081,0.219-0.155,0.324-0.225c0.854-0.562,1.701-1.133,2.562-1.684
	c1.188-0.759,2.463-0.817,3.789-0.454c1.756,0.48,2.844,1.654,3.479,3.312c0.268,0.696,0.436,1.413,0.521,2.153
	c0.012,0.089,0.092,0.191,0.17,0.247c0.291,0.212,0.631,0.369,0.887,0.616c0.779,0.75,0.84,2.022,0.168,2.867
	c-0.436,0.549-0.957,1-1.586,1.319c-0.057,0.029-0.111,0.062-0.166,0.094c-0.014,0.008-0.021,0.024-0.033,0.039
	c0.521,0.392,1.055,0.77,1.561,1.18c0.486,0.396,0.955,0.817,1.416,1.244c0.775,0.72,1.133,1.643,1.27,2.671
	c0.283,2.148-0.574,3.789-2.271,5.031c-0.51,0.373-1.086,0.658-1.641,0.964c-0.129,0.072-0.189,0.138-0.207,0.283
	c-0.125,1.055-0.625,1.812-1.689,2.121c-0.451,0.131-0.895,0.097-1.326-0.072c-0.652-0.256-1.242-0.611-1.734-1.117
	C22.035,24.791,21.984,24.753,21.918,24.693z M16.392,11.681c-0.944,1.262-2.251,1.833-3.771,2.079
	c0.916,1.313,1.036,2.75,0.796,4.271c1.525-0.467,2.933-0.155,4.302,0.536c0.008-1.602,0.742-2.833,1.826-3.932
	C18.047,14.124,17.098,13.06,16.392,11.681z M19.027,19.495c0.041-0.131,0.078-0.245,0.115-0.359
	c0.244-0.792,0.486-1.584,0.906-2.309c0.254-0.438,0.58-0.789,1.061-0.979c0.787-0.31,1.523-0.196,2.201,0.28
	c1.99,1.401,3.129,3.334,3.516,5.72c0.064,0.402,0.07,0.813,0.107,1.257c0.68-0.34,1.346-0.667,1.758-1.325
	c0.215-0.344,0.285-0.73,0.244-1.137c-0.066-0.683-0.436-1.18-0.963-1.58c-1.803-1.37-3.607-2.737-5.406-4.111
	c-0.143-0.107-0.273-0.127-0.445-0.11c-0.391,0.038-0.803,0.128-1.174,0.045c-0.639-0.143-1.062,0.081-1.408,0.576
	c-0.01,0.013-0.021,0.023-0.033,0.035c-0.801,0.911-1.271,1.95-1.24,3.185c0.004,0.091,0.014,0.214,0.07,0.266
	C18.551,19.139,18.785,19.308,19.027,19.495z M12.941,19.53c0.085,0,0.141-0.002,0.196,0c0.788,0.031,1.577,0.042,2.363,0.102
	c0.511,0.038,0.997,0.195,1.382,0.567c0.697,0.675,0.859,1.49,0.582,2.396c-0.637,2.081-1.927,3.658-3.782,4.77
	c-0.546,0.327-1.148,0.562-1.732,0.843c0.408,0.455,0.881,0.891,1.479,1.156c0.179,0.08,0.385,0.127,0.581,0.137
	c0.957,0.045,1.719-0.501,2.07-1.497c0.768-2.179,1.524-4.359,2.276-6.543c0.033-0.097,0.016-0.238-0.031-0.332
	c-0.273-0.536-0.447-1.101-0.553-1.691c-0.018-0.107-0.105-0.239-0.199-0.29c-0.316-0.172-0.645-0.332-0.98-0.464
	c-1.042-0.409-2.098-0.457-3.16-0.068c-0.08,0.029-0.175,0.095-0.208,0.168C13.121,19.016,13.042,19.26,12.941,19.53z M20.84,13.669
	c-0.105-0.074-0.195-0.14-0.285-0.203c-0.674-0.471-1.34-0.95-1.906-1.555c-0.924-0.985-0.873-2.394,0.184-3.244
	c1.947-1.563,4.186-2.057,6.629-1.694c0.416,0.062,0.824,0.186,1.252,0.285c-0.062-0.611-0.186-1.199-0.479-1.736
	c-0.102-0.187-0.248-0.363-0.408-0.501c-0.719-0.61-1.711-0.615-2.574-0.018c-1.889,1.307-3.773,2.618-5.654,3.935
	c-0.092,0.063-0.158,0.191-0.191,0.303c-0.127,0.415-0.156,0.879-0.365,1.243c-0.311,0.539-0.225,0.972,0.109,1.425
	c0.072,0.097,0.127,0.206,0.193,0.308c0.602,0.934,1.412,1.601,2.484,1.925c0.088,0.026,0.207,0.06,0.273,0.021
	C20.348,14.019,20.58,13.847,20.84,13.669z M11.636,2.57c-0.278-0.041-0.514-0.089-0.752-0.107c-0.557-0.042-1.116-0.07-1.627,0.222
	C8.425,3.162,8.07,4.131,8.373,5.145c0.662,2.213,1.332,4.424,2.006,6.634c0.028,0.093,0.12,0.181,0.204,0.238
	c0.364,0.25,0.819,0.419,1.089,0.745c0.436,0.524,0.91,0.496,1.457,0.335c0.077-0.022,0.157-0.037,0.234-0.058
	c1.103-0.283,2.012-0.851,2.66-1.802c0.05-0.073,0.102-0.18,0.085-0.255c-0.062-0.272-0.151-0.539-0.237-0.828
	c-0.087,0.063-0.161,0.123-0.241,0.175c-0.68,0.444-1.332,0.943-2.048,1.319c-1.285,0.673-2.577,0.15-3.119-1.197
	c-0.571-1.422-0.594-2.894-0.347-4.377C10.325,4.805,10.835,3.656,11.636,2.57z M2.472,15.497c-0.296,0.491-0.513,0.998-0.615,1.547
	c-0.038,0.202-0.052,0.42-0.019,0.622c0.157,0.981,0.95,1.641,2.033,1.688c0.692,0.031,1.386,0.037,2.078,0.052
	c1.66,0.034,3.32,0.067,4.98,0.097c0.076,0.001,0.173-0.036,0.225-0.09c0.431-0.434,0.921-0.779,1.462-1.061
	c0.091-0.047,0.186-0.162,0.203-0.26c0.068-0.372,0.13-0.747,0.151-1.124c0.063-1.101-0.209-2.108-0.886-2.992
	c-0.05-0.065-0.125-0.154-0.193-0.158c-0.292-0.018-0.586-0.007-0.884-0.007c0.021,0.068,0.049,0.144,0.07,0.22
	c0.209,0.76,0.469,1.51,0.617,2.28c0.284,1.471-0.536,2.544-2.021,2.704c-0.836,0.09-1.652-0.043-2.46-0.265
	c-1.567-0.433-2.923-1.217-4.032-2.41C2.938,16.077,2.718,15.791,2.472,15.497z M6.017,12.554c-1.262,0.464-2.254,1.243-3.074,2.262
	c-0.106,0.134-0.103,0.216-0.01,0.351c0.629,0.91,1.451,1.615,2.372,2.206c0.43,0.276,0.921,0.43,1.441,0.417
	c0.552-0.014,0.814-0.391,0.65-0.914c-0.168-0.537-0.343-1.072-0.514-1.608C6.597,14.372,6.312,13.477,6.017,12.554z M10.27,23.892
	c-0.006,0.063-0.015,0.11-0.013,0.157c0.066,1.28,0.501,2.434,1.197,3.499c0.088,0.137,0.181,0.118,0.308,0.081
	c1.07-0.314,2.013-0.872,2.845-1.596c0.328-0.285,0.584-0.69,0.78-1.087c0.294-0.597-0.024-1.036-0.688-1.038
	c-1.145-0.006-2.289-0.012-3.435-0.017C10.936,23.891,10.608,23.892,10.27,23.892z M15.493,5.045
	c-0.826-1.051-1.861-1.746-3.062-2.215c-0.19-0.074-0.283-0.025-0.397,0.125c-0.602,0.795-0.972,1.701-1.27,2.641
	c-0.174,0.55-0.198,1.112-0.042,1.668c0.17,0.607,0.636,0.756,1.145,0.39c0.699-0.504,1.398-1.007,2.098-1.511
	C14.466,5.781,14.969,5.42,15.493,5.045z M25.549,11.705c0.039-0.025,0.057-0.03,0.064-0.042c0.732-1.105,1.068-2.334,1.113-3.648
	c0.002-0.063-0.086-0.165-0.154-0.189c-1.088-0.39-2.215-0.501-3.355-0.389c-0.521,0.051-1.029,0.218-1.416,0.612
	c-0.301,0.308-0.262,0.702,0.08,0.962c0.258,0.195,0.52,0.38,0.779,0.571C23.623,10.289,24.582,10.995,25.549,11.705z M22.35,23.375
	c0.051,0.02,0.078,0.033,0.107,0.042c1.264,0.348,2.52,0.279,3.768-0.08c0.059-0.018,0.119-0.137,0.125-0.212
	c0.059-0.99-0.184-1.932-0.48-2.863c-0.178-0.559-0.486-1.038-0.93-1.417c-0.512-0.439-0.996-0.297-1.205,0.333
	c-0.375,1.131-0.748,2.262-1.121,3.393C22.525,22.836,22.439,23.103,22.35,23.375z M26.273,23.921
	c-0.045,0.004-0.068,0.003-0.092,0.009c-1.279,0.339-2.559,0.344-3.842,0.018c-0.057-0.015-0.125,0.021-0.189,0.033
	c0.025,0.07,0.029,0.157,0.076,0.207c0.471,0.517,1.014,0.938,1.668,1.204C25.021,25.854,26.156,25.161,26.273,23.921z
	 M27.279,8.165c-0.061,1.408-0.488,2.696-1.305,3.941c0.16-0.015,0.268,0.006,0.334-0.037c0.465-0.299,0.947-0.58,1.373-0.93
	c0.475-0.392,0.768-0.903,0.701-1.563C28.316,8.937,27.852,8.32,27.279,8.165z M10.949,27.789c-0.786-1.196-1.181-2.497-1.279-3.92
	c-0.096,0.052-0.173,0.109-0.216,0.186c-0.33,0.581-0.534,1.201-0.615,1.866C8.694,27.114,9.808,28.122,10.949,27.789z M15.92,4.707
	c0.029-0.001,0.058-0.001,0.086-0.001c0.012-0.083,0.041-0.167,0.032-0.247c-0.074-0.706-0.281-1.368-0.661-1.972
	c-0.299-0.474-0.725-0.74-1.28-0.804c-0.539-0.062-1.224,0.233-1.451,0.639C13.956,2.816,15.046,3.612,15.92,4.707z M2.517,14.434
	c0.019-0.014,0.043-0.022,0.057-0.04c0.841-1.047,1.889-1.81,3.135-2.306c0.047-0.019,0.076-0.08,0.115-0.122
	c-0.051-0.031-0.097-0.079-0.152-0.091c-0.734-0.16-1.47-0.18-2.195,0.034C2.381,12.231,1.923,13.442,2.517,14.434z M10.67,12.68
	c0.098,0.542,0.223,0.629,0.704,0.516C11.141,13.025,10.925,12.867,10.67,12.68z M16.807,9.515
	c-0.485,0.261-0.493,0.288-0.275,0.834C16.625,10.062,16.707,9.817,16.807,9.515z M18.379,19.714
	c0.104,0.31,0.186,0.557,0.277,0.831C18.863,20.043,18.945,20.146,18.379,19.714z M21.729,14.341c-0.406-0.361-0.449-0.359-0.836,0
	C21.168,14.341,21.428,14.341,21.729,14.341z M11.851,19.511c0.516,0.041,0.575-0.005,0.628-0.451
	C12.276,19.206,12.09,19.34,11.851,19.511z"/>
</svg>
