<?xml version="1.0" encoding="utf-8"?>
<!-- Generator: Adobe Illustrator 16.0.0, SVG Export Plug-In . SVG Version: 6.00 Build 0)  -->
<!DOCTYPE svg PUBLIC "-//W3C//DTD SVG 1.1//EN" "http://www.w3.org/Graphics/SVG/1.1/DTD/svg11.dtd">
<svg version="1.1" id="Layer_1" xmlns="http://www.w3.org/2000/svg" xmlns:xlink="http://www.w3.org/1999/xlink" x="0px" y="0px"
	 width="32px" height="32px" viewBox="0 0 32 32" enable-background="new 0 0 32 32" xml:space="preserve">
<path fill-rule="evenodd" clip-rule="evenodd" d="M5.513,18.912c-0.913-0.149-1.759-0.399-2.492-0.94
	c-1.948-1.436-2.618-4.339-1.432-6.545c1.129-2.101,2.931-3.2,5.331-3.246c0.417-0.008,0.835,0.107,1.265,0.167
	C8.104,8.092,8.011,7.814,7.932,7.533c-0.761-2.725,1.012-5.054,2.951-5.853c2.333-0.96,4.41-0.396,6.261,1.192
	c0.832,0.715,1.127,1.289,1.503,2.508c0.286-0.247,0.62-0.521,0.938-0.814c1.711-1.57,4.304-1.442,6.007-0.33
	c1.575,1.029,2.38,2.52,2.51,4.377c0.091,1.303-0.13,2.543-0.896,3.638c-0.202,0.289-0.452,0.544-0.659,0.79
	c0.55,0.176,1.141,0.299,1.674,0.545c1.597,0.737,2.452,2.067,2.712,3.757c0.411,2.686-1.114,5.106-3.793,6.13
	c-1.078,0.412-2.175,0.494-3.321,0.127c0.096,0.309,0.189,0.587,0.269,0.868c0.761,2.725-1.012,5.054-2.951,5.852
	c-2.333,0.961-4.407,0.394-6.262-1.19c-0.807-0.688-1.314-1.577-1.498-2.512c-0.291,0.251-0.626,0.524-0.944,0.817
	c-1.677,1.539-4.197,1.443-5.883,0.404c-1.643-1.012-2.487-2.52-2.63-4.423c-0.099-1.312,0.122-2.562,0.893-3.666
	C5.015,19.461,5.265,19.205,5.513,18.912z M23.147,15.403c-0.009-0.028-0.017-0.056-0.025-0.083
	c-0.103-0.026-0.205-0.053-0.308-0.078c-0.957-0.242-1.806-0.674-2.469-1.422c-0.99-1.116-1.374-2.434-1.284-3.906
	c0.008-0.124-0.013-0.25-0.019-0.375c-0.038-0.02-0.075-0.037-0.113-0.057c-0.066,0.095-0.121,0.2-0.199,0.283
	c-0.576,0.604-1.246,1.07-2.055,1.303c-1.584,0.453-3.052,0.17-4.414-0.738c-0.115-0.077-0.253-0.119-0.443-0.207
	c0.059,0.222,0.093,0.352,0.128,0.48c0.191,0.718,0.268,1.443,0.118,2.178c-0.332,1.621-1.274,2.779-2.718,3.552
	c-0.162,0.086-0.32,0.182-0.5,0.283c0.064,0.056,0.075,0.072,0.091,0.076c0.083,0.023,0.168,0.043,0.252,0.063
	c0.969,0.24,1.826,0.679,2.494,1.436c0.979,1.11,1.362,2.419,1.273,3.881c-0.007,0.127-0.001,0.255-0.001,0.383
	c0.051,0.03,0.103,0.062,0.154,0.093c0.049-0.094,0.075-0.218,0.151-0.278c0.451-0.358,0.872-0.787,1.379-1.035
	c1.77-0.865,3.478-0.624,5.104,0.43c0.119,0.077,0.257,0.127,0.454,0.223c-0.06-0.229-0.096-0.366-0.131-0.504
	c-0.186-0.708-0.264-1.425-0.117-2.149c0.328-1.621,1.265-2.783,2.709-3.558C22.824,15.588,22.984,15.494,23.147,15.403z
	 M9.321,13.461c0.001-1.263-0.621-2.727-1.499-3.638C7.571,9.562,7.318,9.516,6.995,9.58c-1.914,0.387-3.033,1.6-3.502,3.438
	c-0.228,0.892,0.005,1.713,0.696,2.354c0.699,0.647,1.527,0.954,2.491,0.864C8.094,16.102,9.32,14.818,9.321,13.461z M22.698,18.811
	c0.057,1.189,0.589,2.448,1.637,3.474c0.104,0.103,0.308,0.166,0.457,0.153c1.765-0.151,3.312-1.556,3.723-3.365
	c0.212-0.935,0.032-1.773-0.683-2.441c-0.697-0.649-1.526-0.955-2.491-0.865C23.928,15.897,22.7,17.182,22.698,18.811z
	 M24.426,12.171c0.231-0.039,0.687-0.114,1.141-0.194c0.236-0.043,0.37-0.18,0.461-0.415c0.679-1.771,0.251-3.313-0.971-4.679
	c-0.532-0.594-1.207-0.938-2.025-0.871c-1.848,0.147-3.109,1.885-2.738,3.698c0.184,0.892,0.646,1.511,1.47,1.902
	C22.538,11.98,23.348,12.145,24.426,12.171z M5.641,21.812c0.099,1.562,0.596,2.699,1.613,3.58c0.49,0.425,1.071,0.653,1.73,0.6
	c1.834-0.148,3.122-1.868,2.741-3.666c-0.106-0.498-0.209-1.032-0.629-1.366c-1.427-1.136-3.041-1.367-4.773-0.885
	c-0.109,0.03-0.241,0.151-0.273,0.257C5.879,20.889,5.737,21.455,5.641,21.812z M13.721,3.469c-0.23,0.021-0.461,0.037-0.69,0.065
	c-1.283,0.163-2.188,0.957-2.391,2.095c-0.313,1.759,0.734,3.305,2.495,3.635c0.339,0.064,0.742,0.105,1.045-0.016
	c1.685-0.674,2.669-1.971,3.111-3.702c0.028-0.114-0.028-0.288-0.104-0.388C16.317,4.014,15.141,3.496,13.721,3.469z M21.432,25.781
	c0.001-1.546-1.008-2.747-2.559-3.059c-0.447-0.089-0.871-0.094-1.295,0.117c-1.513,0.758-2.436,1.978-2.845,3.601
	c-0.029,0.117,0.019,0.29,0.093,0.391c1.166,1.583,3.086,1.944,4.629,1.533C20.734,28.023,21.432,27.096,21.432,25.781z"/>
</svg>
