<?xml version="1.0" encoding="utf-8"?>
<!-- Generator: Adobe Illustrator 16.0.0, SVG Export Plug-In . SVG Version: 6.00 Build 0)  -->
<!DOCTYPE svg PUBLIC "-//W3C//DTD SVG 1.1//EN" "http://www.w3.org/Graphics/SVG/1.1/DTD/svg11.dtd">
<svg version="1.1" id="Layer_1" xmlns="http://www.w3.org/2000/svg" xmlns:xlink="http://www.w3.org/1999/xlink" x="0px" y="0px"
	 width="32px" height="32px" viewBox="0 0 32 32" enable-background="new 0 0 32 32" xml:space="preserve">
<g>
	<path fill="#231F20" d="M16,5.996c0.687,0,1.249-0.562,1.249-1.249V2.25C17.249,1.562,16.687,1,16,1
		c-0.686,0-1.249,0.562-1.249,1.25v2.498C14.751,5.434,15.314,5.996,16,5.996z"/>
	<path fill="#231F20" d="M16,31c0.687,0,1.249-0.562,1.249-1.249v-2.497c0-0.687-0.562-1.249-1.249-1.249
		c-0.686,0-1.249,0.562-1.249,1.249v2.497C14.751,30.438,15.314,31,16,31z"/>
	<path fill="#231F20" d="M26.004,16c0,0.687,0.563,1.249,1.249,1.249h2.498C30.438,17.249,31,16.687,31,16
		c0-0.686-0.562-1.249-1.249-1.249h-2.498C26.567,14.751,26.004,15.314,26.004,16z"/>
	<path fill="#231F20" d="M1,16c0,0.687,0.562,1.249,1.249,1.249h2.498c0.687,0,1.249-0.562,1.249-1.249
		c0-0.686-0.562-1.249-1.249-1.249H2.249C1.562,14.751,1,15.314,1,16z"/>
	<path fill="#231F20" d="M23.074,8.927c0.486,0.485,1.281,0.485,1.766,0l1.768-1.767c0.486-0.486,0.486-1.28,0-1.766
		s-1.28-0.486-1.768,0L23.074,7.16C22.588,7.646,22.588,8.441,23.074,8.927z"/>
	<path fill="#231F20" d="M5.394,26.607c0.486,0.485,1.279,0.485,1.766,0l1.767-1.768c0.486-0.485,0.486-1.279,0-1.767
		c-0.486-0.487-1.281-0.487-1.767,0L5.394,24.84C4.908,25.325,4.908,26.121,5.394,26.607z"/>
	<path fill="#231F20" d="M23.074,23.074c-0.486,0.486-0.486,1.281,0,1.766l1.766,1.768c0.487,0.486,1.281,0.486,1.768,0
		s0.486-1.281,0-1.768l-1.768-1.766C24.355,22.588,23.559,22.588,23.074,23.074z"/>
	<path fill="#231F20" d="M5.394,5.394c-0.487,0.486-0.487,1.28,0,1.766l1.765,1.767c0.486,0.485,1.281,0.485,1.767,0
		c0.486-0.486,0.486-1.281,0-1.767L7.159,5.394C6.673,4.907,5.879,4.907,5.394,5.394z"/>
	<path fill="#231F20" d="M16.103,7.298c-4.807,0-8.702,3.896-8.702,8.702s3.895,8.702,8.702,8.702c4.806,0,8.703-3.896,8.703-8.702
		C24.806,11.194,20.909,7.298,16.103,7.298z M16.103,22.356c-1.698,0-3.293-0.661-4.494-1.862C10.408,19.296,9.747,17.697,9.747,16
		c0-1.698,0.661-3.294,1.862-4.494c1.202-1.201,2.797-1.862,4.494-1.862c1.699,0,3.294,0.661,4.495,1.862
		c1.199,1.2,1.862,2.796,1.862,4.494c0,1.697-0.663,3.296-1.862,4.494C19.397,21.695,17.802,22.356,16.103,22.356z"/>
</g>
</svg>
